<?xml version="1.0" encoding="utf-8"?><svg xml:space="preserve" viewBox="0 0 100 100" y="0" x="0" xmlns="http://www.w3.org/2000/svg" id="圖層_1" version="1.1" width="47px" height="47px" xmlns:xlink="http://www.w3.org/1999/xlink" style="width:100%;height:100%;background-size:initial;background-repeat-y:initial;background-repeat-x:initial;background-position-y:initial;background-position-x:initial;background-origin:initial;background-image:initial;background-color:rgba(255, 255, 255, 0);background-clip:initial;background-attachment:initial;animation-play-state:paused" ><g class="ldl-scale" style="transform-origin:50% 50%;transform:rotate(0deg) scale(0.8, 0.8);animation-play-state:paused" ><path fill="#e15b64" d="M81 24.5c-.6-2.6-2.2-4.6-4.4-5.7 1-1 1.6-2.5 1.6-4 0-3.2-2.6-5.9-5.9-5.9-1.9 0-3.7.9-4.7 2.4-1.5-2.7-4.4-4.6-7.7-4.6-2 0-3.9.7-5.4 1.8-1.5-2.8-4.4-4.8-7.8-4.8-3.4 0-6.3 1.9-7.8 4.7-.8-.2-1.6-.3-2.5-.3-5.3 0-9.5 4.3-9.5 9.5 0 3.6 2 6.8 5 8.4-.1.8-.1 1.6.1 2.4.7 3.2 3.9 5.2 7.1 4.5.2 0 .3-.1.5-.1 1.7 3.6 5.8 5.7 9.9 4.8 3.3-.8 5.8-3.3 6.5-6.4 1.7.8 3.7 1 5.6.6 1.1-.2 2-.7 2.9-1.2 1.8 3.5 5.8 5.4 9.7 4.5 4.9-1.2 7.9-5.9 6.8-10.6z" style="fill:rgb(225, 91, 100);animation-play-state:paused" ></path>
<g style="animation-play-state:paused" ><path fill="#f47e60" d="M80.8 87.6c-3.1-5.1-9.5-15.1-15.1-24-4.1-6.4-7.7-12.2-9.5-15-.7-1.1-1.8-1.8-3-1.8H44.4c-1.2 0-2.3.7-3 1.8-1.8 2.8-5.5 8.6-9.5 15-5.6 8.8-11.9 18.9-15.1 24-.9 1.4 0 3.3 1.5 3.3h61.2c1.3 0 2.2-1.9 1.3-3.3z" style="fill:rgb(244, 126, 96);animation-play-state:paused" ></path>
<path fill="#e0e0e0" d="M42.1 60.7c1.8 2.3 4.1 4.5 6.7 4.5s4.9-2.2 6.7-4.5c1.8 2.3 4.1 4.5 6.7 4.5 1.3 0 2.5-.4 3.6-1 .3-.2.4-.5.2-.8-4.1-6.4-7.7-12.1-9.5-14.9-.7-1.1-1.9-1.8-3.1-1.8h-9.2c-1.2 0-2.4.7-3.1 1.8-1.8 2.8-5.4 8.5-9.5 14.9-.2.3-.1.7.2.8 1.1.6 2.3 1 3.6 1 2.6 0 4.9-2.2 6.7-4.5z" style="fill:rgb(224, 224, 224);animation-play-state:paused" ></path></g>
<g style="animation-play-state:paused" ><path fill="#c33737" d="M46.5 28.1v3.6c0 .7-.5 1.2-1.2 1.2s-1.2-.5-1.2-1.2v-3.6c0-.7.5-1.2 1.2-1.2s1.2.6 1.2 1.2z" style="fill:rgb(195, 55, 55);animation-play-state:paused" ></path></g>
<g style="animation-play-state:paused" ><path fill="#c33737" d="M46.5 36.8V44c0 .7-.5 1.2-1.2 1.2s-1.2-.5-1.2-1.2v-7.2c0-.7.5-1.2 1.2-1.2s1.2.5 1.2 1.2z" style="fill:rgb(195, 55, 55);animation-play-state:paused" ></path></g>
<g style="animation-play-state:paused" ><path fill="#c33737" d="M50.3 28.1v6.1c0 .7-.5 1.2-1.2 1.2s-1.2-.5-1.2-1.2v-6.1c0-.7.5-1.2 1.2-1.2s1.2.6 1.2 1.2z" style="fill:rgb(195, 55, 55);animation-play-state:paused" ></path></g>
<g style="animation-play-state:paused" ><path fill="#c33737" d="M50.3 38.9v4.9c0 .7-.5 1.2-1.2 1.2s-1.2-.5-1.2-1.2v-4.9c0-.7.5-1.2 1.2-1.2s1.2.6 1.2 1.2z" style="fill:rgb(195, 55, 55);animation-play-state:paused" ></path></g>
<g style="animation-play-state:paused" ><path fill="#c33737" d="M54.1 28.1v3.6c0 .7-.5 1.2-1.2 1.2s-1.2-.5-1.2-1.2v-3.6c0-.7.5-1.2 1.2-1.2s1.2.6 1.2 1.2z" style="fill:rgb(195, 55, 55);animation-play-state:paused" ></path></g>
<g style="animation-play-state:paused" ><path fill="#c33737" d="M54.1 36v3.2c0 .7-.5 1.2-1.2 1.2s-1.2-.5-1.2-1.2V36c0-.7.5-1.2 1.2-1.2s1.2.6 1.2 1.2z" style="fill:rgb(195, 55, 55);animation-play-state:paused" ></path></g>
<g style="animation-play-state:paused" ><path fill="#c33737" d="M54.1 43.9v-.2c0 .7-.5 1.2-1.2 1.2s-1.2-.5-1.2-1.2v.2c0-.7.5-1.2 1.2-1.2s1.2.6 1.2 1.2z" style="fill:rgb(195, 55, 55);animation-play-state:paused" ></path></g>
<path stroke-miterlimit="10" stroke-linecap="round" stroke-width="3" stroke="#c33737" fill="none" d="M39.6 44.7c-2.1-7-7.7-12.8-14.5-15.3" style="stroke:rgb(195, 55, 55);animation-play-state:paused" ></path>
<path stroke-miterlimit="10" stroke-linecap="round" stroke-width="3" stroke="#c33737" fill="none" d="M59 38.2c1.4-3.2 4.2-5.6 7.5-6.6" style="stroke:rgb(195, 55, 55);animation-play-state:paused" ></path>
<circle fill="#f8b26a" r="3.1" cy="23.8" cx="19.2" style="fill:rgb(248, 178, 106);animation-play-state:paused" ></circle>
<circle fill="#f8b26a" r="3.1" cy="29" cx="73.2" style="fill:rgb(248, 178, 106);animation-play-state:paused" ></circle>
<circle fill="#f8b26a" r="3.1" cy="20.8" cx="56" style="fill:rgb(248, 178, 106);animation-play-state:paused" ></circle>
<circle fill="#f8b26a" r="3.1" cy="52.2" cx="71.1" style="fill:rgb(248, 178, 106);animation-play-state:paused" ></circle>
<metadata xmlns:d="https://loading.io/stock/" style="animation-play-state:paused" ><d:name style="animation-play-state:paused" >volcano</d:name>
<d:tags style="animation-play-state:paused" >erupt,mound,magma,lava,dust,cloud,smoke,fuji,mountain,hill,volcano,weather</d:tags>
<d:license style="animation-play-state:paused" >pro</d:license>
<d:slug style="animation-play-state:paused" >s76qjc</d:slug></metadata></g><!-- generated by https://loading.io/ --></svg>